<?xml version="1.0" encoding="UTF-8"?>
<svg xmlns="http://www.w3.org/2000/svg" width="184.6" height="160.6" version="1.1" viewBox="0 0 184.6 160.6">
  <defs>
    <style>
      .cls-1 {
        fill: #929496;
      }

      .cls-1, .cls-2 {
        stroke: #929496;
        stroke-miterlimit: 10;
      }

      .cls-2 {
        fill: none;
        stroke-width: 13px;
      }
    </style>
  </defs>
  <!-- Generator: Adobe Illustrator 28.7.9, SVG Export Plug-In . SVG Version: 1.2.0 Build 218)  -->
  <g>
    <g id="Layer_1">
      <path class="cls-2" d="M176.7,67.6c0,14.6-6.3,28-17.6,40.6-13.1,14.5-33,27.9-58.1,40.3-.2.1-.5-.1-.4-.4l4.1-13.4c1.7-5.7-2.5-11.5-8.5-11.5h-30.3c-35.1,0-62.3-31.7-55.7-66.2,2.1-11.1,7.6-21.1,15.3-28.8,10.1-10.1,24-16.3,39.4-16.3h56.2c30.7,0,55.7,24.9,55.7,55.7Z"/>
      <g>
        <circle class="cls-1" cx="91.7" cy="67.8" r="9.7"/>
        <circle class="cls-1" cx="53.4" cy="67.8" r="9.7"/>
        <circle class="cls-1" cx="130.1" cy="67.8" r="9.7"/>
      </g>
    </g>
  </g>
</svg>